<svg xmlns="http://www.w3.org/2000/svg" viewBox="0 0 512 512"><defs><linearGradient id="a" x1="256" x2="256" y1="507.946" y2="4.054" gradientTransform="rotate(45 256 256)" gradientUnits="userSpaceOnUse"><stop offset="0" stop-color="#a6d8f4"/><stop offset="1" stop-color="#dff3fd"/></linearGradient><linearGradient id="b" x1="256" x2="256" y1="83.078" y2="428.922" gradientUnits="userSpaceOnUse"><stop offset="0" stop-color="#0068e7"/><stop offset="1" stop-color="#26b3e8"/></linearGradient></defs><circle cx="256" cy="256" r="251.946" fill="url(#a)" transform="rotate(-45 256 256)"/><path fill="url(#b)" d="M402.511,235.596c.992,1.751,1.328,3.876,.769,5.962l-10.505,39.207c-1.13,4.217-5.506,6.743-9.723,5.613l-14.302-3.832,8.497-31.71c.463-1.727,1.52-3.038,3.111-3.855l22.154-11.384Zm-125.661-7.647l87.319,23.397-10.385,38.759c-2.177,8.125-10.606,12.991-18.731,10.814l-72.954-19.548c.134,1.203,.206,2.424,.206,3.663,0,14.25-9.132,26.366-21.862,30.82v9.476c0,30.086-24.617,54.703-54.702,54.703H116.797v18.416c0,5.852-4.788,10.641-10.641,10.641h-4.39v13.582c0,3.452-2.798,6.25-6.25,6.25s-6.25-2.798-6.25-6.25v-106.845c0-3.452,2.798-6.25,6.25-6.25s6.25,2.798,6.25,6.25v13.582h4.39c5.853,0,10.641,4.789,10.641,10.641v18.416h68.945c18.182,0,33.136-14.954,33.136-33.136v-9.476c-12.73-4.454-21.862-16.569-21.862-30.82,0-7.262,2.372-13.969,6.383-19.392l-64.114-17.179c-16.384-4.39-26.197-21.387-21.807-37.77l.603-2.249,132.368,35.468c1.985,.53,4.003,.041,5.497-1.145l20.905-14.817Zm-35.986,57.085c0-6.188-5.016-11.204-11.204-11.204s-11.204,5.016-11.204,11.204,5.016,11.204,11.204,11.204,11.204-5.016,11.204-11.204Zm89.612-22.704l4.709,1.262c3.33,.89,6.752-1.089,7.642-4.419,.89-3.33-1.089-6.752-4.419-7.642l-4.709-1.262c-3.33-.89-6.752,1.089-7.642,4.419-.89,3.33,1.089,6.752,4.419,7.642Zm92.259-51.181l-54.955,28.24-90.524-24.256c-1.8-.48-3.708-.127-5.225,.952l-21.178,15.01-129.543-34.711,8.519-31.793c4.39-16.384,21.387-26.197,37.77-21.807l255.135,68.363Zm-225.203-17.378l-48.686-13.045c-3.33-.89-6.752,1.089-7.642,4.419-.89,3.33,1.089,6.752,4.419,7.642l48.686,13.045c3.33,.89,6.752-1.089,7.642-4.419,.89-3.33-1.089-6.752-4.419-7.642Zm81.774-45.086c0,7.832,6.35,14.182,14.182,14.182s14.182-6.349,14.182-14.182-6.349-14.182-14.182-14.182-14.182,6.349-14.182,14.182Zm-33.378-32.394c2.672,2.178,6.608,1.774,8.789-.902,10.396-12.775,24.16-19.811,38.772-19.811s28.376,7.036,38.765,19.811c1.236,1.517,3.044,2.305,4.854,2.305,1.39,0,2.786-.458,3.939-1.403,2.679-2.178,3.083-6.113,.909-8.793-12.812-15.748-30.03-24.421-48.467-24.421s-35.652,8.672-48.467,24.421c-2.178,2.679-1.777,6.615,.905,8.793Zm71.875,16.86c1.236,1.52,3.033,2.309,4.854,2.309,1.39,0,2.779-.461,3.939-1.403,2.679-2.178,3.083-6.114,.902-8.793-8.967-11.024-21.043-17.094-34.008-17.094s-25.049,6.073-34.015,17.094c-2.178,2.679-1.771,6.614,.902,8.793,2.683,2.178,6.621,1.774,8.793-.905,6.551-8.048,15.187-12.481,24.32-12.481s17.766,4.433,24.314,12.481Z"/></svg>